<svg width="32" height="47" viewBox="0 0 32 47" fill="none" xmlns="http://www.w3.org/2000/svg">
<path d="M29.0265 15.4934C31.082 19.9669 31.4393 33.8271 27.0787 34.5698C24.8552 34.9485 22.7704 33.2981 20.5858 33.2981C18.2783 33.2981 19.1452 37.9034 17.9526 40.4341C16.0508 44.4695 16.2464 44.7439 13.3715 44.7439C12.5857 44.7439 7.10141 45.9793 6.95082 43.4722C6.54323 36.6862 7.6001 30.3017 7.6001 23.6892C7.6001 12.8474 8.38893 1.50401 15.3915 1.50401C18.5782 1.50401 15.0253 11.2742 17.3755 12.8086C20.6568 14.951 25.4838 10.4063 29.0265 10.4063M7.60043 2.56304C-0.780457 2.56304 1.69221 18.5756 2.37008 32.6251C2.9159 43.9379 5.95175 39.393 9.54829 39.393" stroke="#1E1E1E" stroke-width="3" stroke-linecap="round" stroke-linejoin="round"/>
</svg>
