<svg width="260" height="30" viewBox="0 0 260 30" fill="none" xmlns="http://www.w3.org/2000/svg">
<g clip-path="url(#clip0_203_1434)">
<path d="M40 2.5C36.5911 7.31489 32.1288 12.2105 29.4904 17.6191C28.7764 19.0828 29.0525 18.5818 29.0525 17.1467" stroke="black" stroke-width="3" stroke-linecap="round"/>
<path d="M34 11.5C37.5222 12.5163 40.6871 13.9756 44 15.5" stroke="black" stroke-width="3" stroke-linecap="round"/>
<path d="M38 16.5C37.2109 21.8639 33.4695 23.4214 29 24.5" stroke="black" stroke-width="3" stroke-linecap="round"/>
<path d="M27 24.5C34.8031 24.4277 42.505 24.4959 50 22.5" stroke="black" stroke-width="3" stroke-linecap="round"/>
<path d="M52 8.97969C52.5193 8.98479 56.7896 8.52011 57.1185 9.54266C57.6174 11.0936 54.9836 14.3729 54.2605 15.7354C53.7585 16.6811 53.0924 17.7826 53.455 18.8929C54.1221 20.9354 58.2531 20.4758 59.8467 20.4105C62.2379 20.3126 64.0805 19.0437 65.7967 17.5467C68.3804 15.293 70.6041 11.6976 70.7073 8.29433C70.7642 6.42037 71.0248 11.8719 71.0711 12.4065C71.229 14.2291 71.175 16.0623 71.175 17.8894C71.175 23.114 74.5968 5.6474 80.035 4.62277C85.6187 3.57073 78.5329 13.2315 78.6579 14.2912C78.6819 14.4943 85.8922 9.60555 86.5566 8.97969C87.6105 7.98681 88.4944 6.88478 89.3627 5.74871C89.3635 5.74769 90.3138 4.47476 90.35 4.50038C91.6286 5.40378 90.1605 13.5069 91.1035 13.1653C96.2436 11.3029 89.1173 15.8275 88.0116 16.5676C86.5532 17.5438 86.969 17.2489 88.3754 17.3509C89.5969 17.4394 88.314 19.2638 89.3627 19.4559C93.7596 20.2613 98.7571 12.515 101.341 10.0812C103.792 7.77159 106.563 6.35999 109.967 5.69976C110.705 5.55666 115.402 5.27281 112.331 5.47947C106.881 5.84623 105.11 11.5947 104.848 16.0291C104.811 16.6561 110.126 9.13426 107.394 12.9939C106.537 14.205 105.288 14.8185 104.017 15.5885C103.312 16.0156 103.284 16.0197 104.432 16.0291C109.091 16.0673 113.752 16.0291 118.411 16.0291C122.689 16.0291 126.968 16.0291 131.246 16.0291C131.684 16.0291 132.92 16.2181 133.377 15.9312C134.413 15.2807 133.845 12.2173 133.845 11.1826" stroke="black" stroke-width="3" stroke-linecap="round"/>
<path d="M135 2.5C134.332 11.2337 133.25 19.8395 132 28.5" stroke="black" stroke-width="3" stroke-linecap="round"/>
</g>
<defs>
<clipPath id="clip0_203_1434">
<rect width="150" height="30" fill="white" transform="translate(20)"/>
</clipPath>
</defs>
</svg>
