<svg width="49" height="37" viewBox="0 0 49 37" fill="none" xmlns="http://www.w3.org/2000/svg">
<path d="M46.1665 10.2837C42.4119 10.2837 39.8331 6.2871 36.3182 5.13967M47.4795 15.428C42.0679 20.139 36.5966 24.7267 31.0657 29.2882C29.7925 30.3383 32.5382 15.3778 32.8895 13.1418C34.1717 4.97947 32.4236 1.03395 28.0018 1.56786C20.4643 2.47796 11.7601 5.89762 4.65771 10.9985C3.66385 11.7123 1.95552 12.4393 1.52085 14.142M31.0659 34.7143C25.031 34.7143 18.8308 36.9452 13.7038 31.285C11.7534 29.1318 6.30226 24.0376 6.80998 18.5679C7.16264 14.7688 8.08661 11.7176 8.08661 7.70842" stroke="#1E1E1E" stroke-width="3" stroke-linecap="round" stroke-linejoin="round"/>
</svg>
