<svg width="42" height="80" viewBox="0 0 42 80" fill="none" xmlns="http://www.w3.org/2000/svg">
<path d="M39.7991 9.8446C28.7616 9.8446 17.7469 8.91868 6.70871 8.91868M39.7991 12.6199C38.991 16.5053 37.5521 18.6874 35.6234 20.3874C34.5775 21.3093 33.654 22.724 35.3346 23.9367C35.8353 24.2981 41.2407 27.6549 40.4032 28.412C39.2174 29.484 38.1009 30.6201 36.9628 31.8585C35.8431 33.077 43.789 36.7773 37.278 40.6033C36.4022 41.118 35.6844 41.7838 34.8881 42.6095C34.6018 42.9063 33.6994 42.8749 33.9689 43.2268C35.6104 45.3703 37.9924 46.789 38.7224 50.8399C39.6575 56.0297 32.0764 51.2028 38.3022 59.739C40.0666 62.1582 37.3576 61.6777 36.2275 62.1053C32.8862 63.3696 29.5212 63.7981 26.169 64.9345C21.1794 66.626 16.3649 68.0378 11.4622 70.4386C8.33763 71.9686 4.728 72.8048 1.50884 72.8048M33.1814 1.50847L14.0626 1.50847C10.6354 1.50847 7.26586 3.36031 3.87282 3.36031M32.2358 2.43626L32.2358 9.84363M32.7081 62.6193C32.7081 64.2409 33.1021 67.9519 32.2354 68.895C29.9145 71.4206 26.4845 70.9526 23.9365 70.9526C20.1627 70.9526 17.6012 71.5124 14.0619 74.1419C12.2857 75.4616 9.61857 76.4119 8.12668 78.36" stroke="#1E1E1E" stroke-width="3" stroke-linecap="round" stroke-linejoin="round"/>
</svg>
