<svg width="94" height="112" viewBox="0 0 94 112" fill="none" xmlns="http://www.w3.org/2000/svg">
<path d="M40.7271 52.9681C39.5955 52.0422 35.9939 50.841 38.79 49.2877C50.8105 42.6096 58.1333 52.96 57.9184 64.203C57.8388 68.3706 53.522 92.3877 44.1653 86.2855C32.1073 78.4216 34.4694 52.4637 41.9861 42.7017C50.3927 31.7841 63.4197 36.542 66.1994 49.094C67.7165 55.9448 67.0422 64.0481 61.5504 69.0457C56.3919 73.7399 44.1829 77.0903 38.451 71.5154C32.5411 65.7674 28.7292 44.7456 36.3202 39.0213C48.0359 30.1865 54.0685 61.3218 52.2526 67.9803C50.1866 75.5556 42.4893 83.3142 37.7246 72.7261C31.5648 59.0376 46.2089 40.9341 60.9209 43.1859C74.5451 45.2713 69.7973 67.1951 62.7127 73.2103C53.3573 81.1536 36.2233 84.1754 33.6568 68.852C32.3811 61.2352 34.6466 44.0689 44.7949 43.0891C61.4494 41.4811 51.5921 68.4977 45.715 74.1789C37.6465 81.9784 27.9491 77.1688 25.8117 67.157C22.781 52.9606 32.2104 41.9896 45.4728 37.9559C58.4753 34.0012 63.0702 48.0709 62.0347 58.5855C61.2813 66.2352 52.5076 81.593 42.5188 76.4065C34.0109 71.9889 33.7314 55.9103 36.3202 48.2223C40.1058 36.9803 53.1472 30.1902 59.5165 43.8639C63.4553 52.3195 62.5297 63.9191 52.1557 66.3338C42.5193 68.5767 37.9822 57.8257 36.9982 50.2562C36.1915 44.0506 35.2915 32.8259 40.7755 28.1253C48.2531 21.7159 51.6252 50.954 51.4777 53.7429C51.2271 58.4834 45.8789 68.4192 39.468 66.5275C33.1521 64.6638 31.5917 50.6085 31.8166 45.5104C32.102 39.0407 38.1691 35.8859 44.3106 37.0842C58.2196 39.7982 59.6619 59.4219 51.4777 68.4645C35.895 85.6818 17.4692 55.6887 27.7488 41.2973C35.4193 30.5586 56.697 36.0134 65.5214 42.4111C70.8194 46.2522 70.5358 56.8534 70.364 62.7502C69.8721 79.6402 45.3068 82.7264 32.543 79.9416C17.9874 76.7659 19.3293 56.1571 21.0659 44.3482C23.2501 29.4956 37 31.1978 48.4753 32.0478C57.716 32.7323 63.8569 34.8949 71.2357 40.5709C77.3168 45.2487 77.3375 52.2304 77.3375 59.2151C77.3375 65.071 78.4848 71.993 71.4294 73.404C63.4231 75.0053 47.6931 77.3952 41.9377 69.8689C34.7898 60.5217 37.7804 44.6846 41.5987 34.566C43.1855 30.361 54.2435 29.7327 58.0153 29.4812C65.873 28.9574 65.768 45.7165 64.7466 50.6436C63.3178 57.5354 55.3753 59.2001 49.8312 55.8737C41.3252 50.7701 39.2346 45.6278 42.4704 35.8251C45.1077 27.8355 46.9289 28.7886 53.3179 30.6435C58.3556 32.106 59.8127 32.3375 59.9039 38.6338C59.9358 40.8345 60.6434 44.8309 59.1291 46.6726C54.5914 52.1915 48.9323 47.6009 46.5382 42.8954C44.7353 39.3517 39.9779 28.5611 46.8288 28.5611" stroke="#FFEC8A" stroke-width="10" stroke-linecap="round"/>
<path d="M59.9038 47.7381C60.3292 44.3355 61.6472 54.1946 61.6472 50.3531" stroke="black" stroke-width="3" stroke-linecap="round"/>
<path d="M37.2403 52.0965C37.2403 53.6913 37.7582 53.7924 38.9836 54.7116" stroke="black" stroke-width="3" stroke-linecap="round"/>
<path d="M50.3156 66.9151C50.9859 67.5854 54.6868 71.7676 55.4488 69.4817C56.2389 67.1114 56.9352 64.1614 57.289 61.685" stroke="black" stroke-width="3" stroke-linecap="round"/>
<path d="M47.7006 88.7069C47.273 95.9757 45.9572 103.208 45.9572 110.499" stroke="black" stroke-width="3" stroke-linecap="round"/>
<path d="M62.5192 87.8352V102.654" stroke="black" stroke-width="3" stroke-linecap="round"/>
<path d="M79.0808 45.1231C81.5908 41.0443 88.2307 38.4786 92.156 35.5346" stroke="black" stroke-width="3" stroke-linecap="round"/>
<path d="M1.50165 50.3532C2.5096 52.8731 7.2079 53.2857 9.34674 54.7116" stroke="black" stroke-width="3" stroke-linecap="round"/>
<path d="M14.5768 50.3531C18.5348 51.0128 21.812 62.1328 19.3226 64.9779C16.7889 67.8735 11.9618 60.4485 11.9618 58.1498C11.9618 56.7606 13.2087 50.2998 15.8843 51.3701C19.481 52.8088 13.9968 60.8981 12.9303 62.0239C9.3393 65.8144 8.3394 53.0035 9.92787 50.8374C11.1257 49.204 14.8244 47.8809 16.6107 49.1909C19.2787 51.1474 17.9553 58.4679 17.0466 60.9101C16.1293 63.3753 13.552 65.4744 11.5744 62.7987C9.36491 59.8095 9.87224 54.3508 11.1385 51.0795C11.7627 49.4672 13.0941 48.2534 14.9158 48.6582C15.9714 48.8928 15.4485 52.1457 15.4485 52.9197C15.4485 53.5307 15.2172 56.2751 14.0925 54.5178C12.5518 52.1104 14.3535 46.5285 14.7705 44.1545C17.2848 29.8425 21.2727 18.6385 32.204 8.51267C41.5721 -0.165072 58.5967 -1.85719 66.8774 9.57805C71.6424 16.1583 77.8231 23.7481 78.2092 32.2416C78.455 37.6487 79.0809 43.03 79.0809 48.6098" stroke="black" stroke-width="3" stroke-linecap="round"/>
<path d="M34.6253 24.2029C46.6453 18.1929 57.9514 19.238 66.6352 29.5299C74.6054 38.976 81.1874 50.9197 80.8242 63.8158C80.5038 75.1902 68.0705 84.698 57.531 85.6561C51.8709 86.1707 46.2099 86.092 40.5334 86.092C36.2327 86.092 30.3598 87.1953 26.5865 84.6392C19.8167 80.0531 14.1334 72.7059 13.7535 64.3485C13.4278 57.1822 11.8877 46.422 14.5768 39.6994C16.403 35.1338 19.9741 31.2877 23.6809 28.1739C27.4303 25.0245 31.6895 25.9463 36.3687 25.9463" stroke="black" stroke-width="3" stroke-linecap="round"/>
</svg>
