<svg width="62" height="64" viewBox="0 0 62 64" fill="none" xmlns="http://www.w3.org/2000/svg">
<path d="M20.5021 17.0025C17.311 17.0025 14.4028 17.4846 11.8372 19.4742C9.71318 21.1214 8.45136 23.3357 7.58805 25.8341C6.85226 27.9634 5.82999 29.9833 5.11633 32.1106C3.61179 36.5953 2.89107 41.3263 3.00564 46.0522C3.13013 51.1873 6.74153 54.1215 11.1984 55.9947C21.3689 60.2692 32.4179 60.0366 43.2475 59.7439C47.9903 59.6157 51.1059 56.7137 53.2455 52.6342C55.3767 48.5708 56.7448 45.111 56.7448 40.47C56.7448 37.1956 56.6601 34.2823 55.1896 31.2774C54.4437 29.7533 53.5669 28.4102 52.5512 27.056C51.4612 25.6026 50.6721 23.834 49.2741 22.6403C47.1016 20.7851 44.6221 18.8909 42.2477 17.308L42.2068 17.2807C40.8538 16.3786 40.2459 15.9733 38.6929 15.6972C32.9839 14.6823 26.1675 14.5864 20.7521 16.7525M24.0014 13.2532C22.4474 12.4762 26.684 7.63057 27.098 7.04607C28.9746 4.39679 31.8263 4.63414 34.8603 4.31051C38.6464 3.90666 42.3577 4.6051 46.0664 5.24088C48.6465 5.68318 50.2923 7.12818 51.968 8.99013C54.9801 12.3369 55.2451 16.5819 55.2451 20.8489C55.2451 23.4549 53.5843 24.9926 52.2457 27.0004M45.9968 4.50489C45.9968 3.1076 46.54 2.46197 47.4965 1.5055M19.2522 30.7497C18.9339 30.7497 18.8302 30.8295 18.852 30.9253M18.852 30.9253C18.9045 31.157 19.6909 31.4826 19.9465 30.9997C20.2687 30.391 19.4166 30.7539 18.852 30.9253ZM18.852 30.9253C18.7091 30.9686 18.5847 30.9997 18.5024 30.9997M33.9994 30.9996C33.0499 31.1776 33.2839 33.5078 34.7492 32.6937C35.238 32.4222 35.2779 31.7381 35.2491 31.2496C35.2255 30.8485 34.5348 30.9996 34.2493 30.9996M17.7525 37.7481C17.7525 38.8567 18.9538 40.7054 19.8771 41.3446C20.7862 41.974 22.209 41.7473 23.2514 41.7473C25.1433 41.7473 28.2356 42.0269 29.2502 39.9977M55.4951 37.2483C57.1285 37.2483 58.9495 37.5132 60.494 36.9983M3.50534 33.2492C3.22844 32.2339 2.0059 31.7499 1.50574 30.9996M11.0039 54.2449C11.0039 55.4866 10.8026 56.9931 10.4484 58.1885C10.2098 58.9938 10.2077 60.0632 9.75411 60.7436M49.2462 58.744C50.5608 58.8635 52.3582 61.0814 52.7455 62.2433" stroke="black" stroke-width="3" stroke-linecap="round"/>
</svg>
