<svg width="52" height="53" viewBox="0 0 52 53" fill="none" xmlns="http://www.w3.org/2000/svg">
<path d="M17.2796 14.2572C14.6289 14.2572 12.2131 14.654 10.082 16.2919C8.31762 17.6479 7.26947 19.4707 6.55235 21.5273C5.94115 23.2802 5.09199 24.943 4.49918 26.6942C3.2494 30.386 2.65073 34.2806 2.7459 38.171C2.84931 42.3982 5.84918 44.8136 9.55137 46.3556C17.9996 49.8744 27.1777 49.683 36.1735 49.442C40.1131 49.3365 42.7011 46.9476 44.4784 43.5893C46.2487 40.2443 47.3852 37.3962 47.3852 33.5757C47.3852 30.8802 47.3148 28.482 46.0933 26.0083C45.4737 24.7537 44.7453 23.648 43.9017 22.5333C42.9962 21.3368 42.3408 19.8809 41.1795 18.8982C39.3749 17.371 37.3153 15.8117 35.343 14.5087L35.3089 14.4862C34.1851 13.7436 33.6801 13.4099 32.3901 13.1826C27.6478 12.3472 21.9856 12.2682 17.4872 14.0514M20.1864 11.1707C18.8955 10.5311 22.4147 6.54217 22.7586 6.06101C24.3174 3.88011 26.6862 4.0755 29.2065 3.80908C32.3515 3.47664 35.4343 4.05159 38.515 4.57497C40.6582 4.93907 42.0252 6.1286 43.4172 7.66136C45.9193 10.4164 46.1394 13.9109 46.1394 17.4235C46.1394 19.5688 44.7598 20.8346 43.6479 22.4875M38.4571 3.9691C38.4571 2.81885 38.9084 2.28736 39.7029 1.49999M16.2414 25.5739C15.9769 25.5739 15.8908 25.6396 15.9089 25.7184M15.9089 25.7184C15.9525 25.9092 16.6057 26.1772 16.8181 25.7797C17.0858 25.2787 16.3779 25.5774 15.9089 25.7184ZM15.9089 25.7184C15.7903 25.7541 15.6869 25.7797 15.6185 25.7797M28.4913 25.7796C27.7026 25.9262 27.897 27.8444 29.1142 27.1742C29.5202 26.9507 29.5533 26.3876 29.5294 25.9854C29.5098 25.6552 28.9361 25.7796 28.6989 25.7796M14.9956 31.335C14.9956 32.2476 15.9935 33.7695 16.7605 34.2957C17.5156 34.8138 18.6975 34.6272 19.5634 34.6272C21.1348 34.6272 23.7036 34.8573 24.5464 33.1869M46.347 30.9236C47.7039 30.9236 49.2166 31.1416 50.4995 30.7178M3.16098 27.6315C2.93097 26.7957 1.91545 26.3972 1.49999 25.7797M9.38974 44.9152C9.38974 45.9374 9.22258 47.1776 8.92836 48.1616C8.73016 48.8246 8.72839 49.7049 8.35162 50.265M41.1563 48.6189C42.2483 48.7173 43.7413 50.5431 44.063 51.4995" stroke="black" stroke-width="3" stroke-linecap="round"/>
</svg>
